<svg id="Profile" xmlns="http://www.w3.org/2000/svg" width="27.235" height="27.235" viewBox="0 0 27.235 27.235">
    <g id="패스_965" data-name="패스 965" fill="#fff">
        <path d="M 13.61757469177246 26.48515510559082 C 10.1805248260498 26.48515510559082 6.94919490814209 25.14669418334961 4.518824577331543 22.71632385253906 C 2.088464736938477 20.28596496582031 0.7500047087669373 17.05463409423828 0.7500047087669373 13.61757469177246 C 0.7500047087669373 10.1805248260498 2.088464736938477 6.949184894561768 4.518824577331543 4.518824577331543 C 6.949184894561768 2.088464736938477 10.1805248260498 0.7500047087669373 13.61757469177246 0.7500047087669373 C 17.05463409423828 0.7500047087669373 20.28596496582031 2.088464736938477 22.71632385253906 4.518824577331543 C 25.14669418334961 6.94919490814209 26.48515510559082 10.1805248260498 26.48515510559082 13.61757469177246 C 26.48515510559082 17.05462455749512 25.14669418334961 20.28596496582031 22.71632385253906 22.71632385253906 C 20.28596496582031 25.14669418334961 17.05462455749512 26.48515510559082 13.61757469177246 26.48515510559082 Z" stroke="none"/>
        <path d="M 13.61757469177246 1.499994277954102 C 10.38085556030273 1.499994277954102 7.337863922119141 2.760444641113281 5.049154281616211 5.049154281616211 C 2.760444641113281 7.337863922119141 1.499994277954102 10.38085556030273 1.499994277954102 13.61757469177246 C 1.499994277954102 16.85429382324219 2.760444641113281 19.89728546142578 5.049154281616211 22.18599510192871 C 7.337863922119141 24.47469520568848 10.38085556030273 25.73514556884766 13.61757469177246 25.73514556884766 C 16.85429382324219 25.73514556884766 19.89728546142578 24.47469520568848 22.18599510192871 22.18599510192871 C 24.47469520568848 19.89728546142578 25.73514556884766 16.85429382324219 25.73514556884766 13.61757469177246 C 25.73514556884766 10.38085556030273 24.47469520568848 7.337863922119141 22.18599510192871 5.049154281616211 C 19.89728546142578 2.760444641113281 16.85429382324219 1.499994277954102 13.61757469177246 1.499994277954102 M 13.61757469177246 -5.7220458984375e-06 C 21.13835525512695 -5.7220458984375e-06 27.23514556884766 6.096794128417969 27.23514556884766 13.61757469177246 C 27.23514556884766 21.13835525512695 21.13835525512695 27.23514556884766 13.61757469177246 27.23514556884766 C 6.096794128417969 27.23514556884766 -5.7220458984375e-06 21.13835525512695 -5.7220458984375e-06 13.61757469177246 C -5.7220458984375e-06 6.096794128417969 6.096794128417969 -5.7220458984375e-06 13.61757469177246 -5.7220458984375e-06 Z" stroke="none" fill="#262626"/>
    </g>
    <g id="프로필_아이콘" data-name="프로필 아이콘" transform="translate(4.891 5.108)">
        <g id="그룹_48" data-name="그룹 48" transform="translate(16.363 3.404)">
            <rect id="사각형_98" data-name="사각형 98" width="1.091" height="1.135" transform="translate(0 10.212)" fill="#1c1c1c"/>
            <rect id="사각형_111" data-name="사각형 111" width="1.091" height="1.135" transform="translate(0 9.077)" fill="#1c1c1c"/>
            <rect id="사각형_212" data-name="사각형 212" width="1.091" height="1.135" transform="translate(0 1.135)" fill="#1c1c1c"/>
            <rect id="사각형_227" data-name="사각형 227" width="1.091" height="1.135" transform="translate(0)" fill="#1c1c1c"/>
        </g>
        <g id="그룹_47" data-name="그룹 47" transform="translate(9.818 0)">
            <rect id="사각형_78" data-name="사각형 78" width="1.091" height="1.135" transform="translate(4.363 15.885)" fill="#1c1c1c"/>
            <rect id="사각형_79" data-name="사각형 79" width="1.091" height="1.135" transform="translate(3.273 15.885)" fill="#1c1c1c"/>
            <rect id="사각형_80" data-name="사각형 80" width="1.091" height="1.135" transform="translate(2.181 15.885)" fill="#1c1c1c"/>
            <rect id="사각형_81" data-name="사각형 81" width="1.091" height="1.135" transform="translate(1.091 15.885)" fill="#1c1c1c"/>
            <rect id="사각형_82" data-name="사각형 82" width="1.091" height="1.135" transform="translate(0 15.885)" fill="#1c1c1c"/>
            <rect id="사각형_87" data-name="사각형 87" width="1.091" height="1.135" transform="translate(5.454 14.75)" fill="#1c1c1c"/>
            <rect id="사각형_88" data-name="사각형 88" width="1.091" height="1.135" transform="translate(4.363 14.75)" fill="#e4e4e4"/>
            <rect id="사각형_89" data-name="사각형 89" width="1.091" height="1.135" transform="translate(3.273 14.75)" fill="#e4e4e4"/>
            <rect id="사각형_90" data-name="사각형 90" width="1.091" height="1.135" transform="translate(2.181 14.75)" fill="#e4e4e4"/>
            <rect id="사각형_91" data-name="사각형 91" width="1.091" height="1.135" transform="translate(1.091 14.75)" fill="#e4e4e4"/>
            <rect id="사각형_92" data-name="사각형 92" width="1.091" height="1.135" transform="translate(0 14.75)" fill="#e4e4e4"/>
            <rect id="사각형_99" data-name="사각형 99" width="1.091" height="1.135" transform="translate(5.454 13.616)" fill="#e4e4e4"/>
            <rect id="사각형_100" data-name="사각형 100" width="1.091" height="1.135" transform="translate(4.363 13.616)" fill="#e4e4e4"/>
            <rect id="사각형_101" data-name="사각형 101" width="1.091" height="1.135" transform="translate(3.273 13.616)" fill="#e4e4e4"/>
            <rect id="사각형_102" data-name="사각형 102" width="1.091" height="1.135" transform="translate(2.181 13.616)" fill="#e4e4e4"/>
            <rect id="사각형_103" data-name="사각형 103" width="1.091" height="1.135" transform="translate(1.091 13.616)" fill="#1c1c1c"/>
            <rect id="사각형_104" data-name="사각형 104" width="1.091" height="1.135" transform="translate(0 13.616)" fill="#1c1c1c"/>
            <rect id="사각형_112" data-name="사각형 112" width="1.091" height="1.135" transform="translate(5.454 12.481)" fill="#e4e4e4"/>
            <rect id="사각형_113" data-name="사각형 113" width="1.091" height="1.135" transform="translate(4.363 12.481)" fill="#e4e4e4"/>
            <rect id="사각형_114" data-name="사각형 114" width="1.091" height="1.135" transform="translate(3.273 12.481)" fill="#e4e4e4"/>
            <rect id="사각형_115" data-name="사각형 115" width="1.091" height="1.135" transform="translate(2.181 12.481)" fill="#1c1c1c"/>
            <rect id="사각형_116" data-name="사각형 116" width="1.091" height="1.135" transform="translate(1.091 12.481)" fill="#e4e4e4"/>
            <rect id="사각형_117" data-name="사각형 117" width="1.091" height="1.135" transform="translate(0 12.481)" fill="#e4e4e4"/>
            <rect id="사각형_125" data-name="사각형 125" width="1.091" height="1.135" transform="translate(5.454 11.346)" fill="#1c1c1c"/>
            <rect id="사각형_126" data-name="사각형 126" width="1.091" height="1.135" transform="translate(4.363 11.346)" fill="#e4e4e4"/>
            <rect id="사각형_127" data-name="사각형 127" width="1.091" height="1.135" transform="translate(3.273 11.346)" fill="#e4e4e4"/>
            <rect id="사각형_128" data-name="사각형 128" width="1.091" height="1.135" transform="translate(2.181 11.346)" fill="#e4e4e4"/>
            <rect id="사각형_129" data-name="사각형 129" width="1.091" height="1.135" transform="translate(1.091 11.346)" fill="#e4e4e4"/>
            <rect id="사각형_130" data-name="사각형 130" width="1.091" height="1.135" transform="translate(0 11.346)" fill="#e4e4e4"/>
            <rect id="사각형_139" data-name="사각형 139" width="1.091" height="1.135" transform="translate(5.454 10.212)" fill="#1c1c1c"/>
            <rect id="사각형_140" data-name="사각형 140" width="1.091" height="1.135" transform="translate(4.363 10.212)" fill="#e4e4e4"/>
            <rect id="사각형_141" data-name="사각형 141" width="1.091" height="1.135" transform="translate(3.273 10.212)" fill="#1c1c1c"/>
            <rect id="사각형_142" data-name="사각형 142" width="1.091" height="1.135" transform="translate(2.181 10.212)" fill="#e4e4e4"/>
            <rect id="사각형_143" data-name="사각형 143" width="1.091" height="1.135" transform="translate(1.091 10.212)" fill="#e4e4e4"/>
            <rect id="사각형_144" data-name="사각형 144" width="1.091" height="1.135" transform="translate(0 10.212)" fill="#e4e4e4"/>
            <rect id="사각형_154" data-name="사각형 154" width="1.091" height="1.135" transform="translate(5.454 9.077)" fill="#1c1c1c"/>
            <rect id="사각형_155" data-name="사각형 155" width="1.091" height="1.135" transform="translate(4.363 9.077)" fill="#e4e4e4"/>
            <rect id="사각형_156" data-name="사각형 156" width="1.091" height="1.135" transform="translate(3.273 9.077)" fill="#1c1c1c"/>
            <rect id="사각형_157" data-name="사각형 157" width="1.091" height="1.135" transform="translate(2.181 9.077)" fill="#e4e4e4"/>
            <rect id="사각형_158" data-name="사각형 158" width="1.091" height="1.135" transform="translate(1.091 9.077)" fill="#e4e4e4"/>
            <rect id="사각형_159" data-name="사각형 159" width="1.091" height="1.135" transform="translate(0 9.077)" fill="#e4e4e4"/>
            <rect id="사각형_169" data-name="사각형 169" width="1.091" height="1.135" transform="translate(5.454 7.942)" fill="#1c1c1c"/>
            <rect id="사각형_170" data-name="사각형 170" width="1.091" height="1.135" transform="translate(4.363 7.942)" fill="#1c1c1c"/>
            <rect id="사각형_171" data-name="사각형 171" width="1.091" height="1.135" transform="translate(3.273 7.942)" fill="#1c1c1c"/>
            <rect id="사각형_172" data-name="사각형 172" width="1.091" height="1.135" transform="translate(2.181 7.942)" fill="#e4e4e4"/>
            <rect id="사각형_173" data-name="사각형 173" width="1.091" height="1.135" transform="translate(1.091 7.942)" fill="#e4e4e4"/>
            <rect id="사각형_174" data-name="사각형 174" width="1.091" height="1.135" transform="translate(0 7.942)" fill="#e4e4e4"/>
            <rect id="사각형_184" data-name="사각형 184" width="1.091" height="1.135" transform="translate(5.454 6.808)" fill="#1c1c1c"/>
            <rect id="사각형_185" data-name="사각형 185" width="1.091" height="1.135" transform="translate(4.363 6.808)" fill="#e4e4e4"/>
            <rect id="사각형_186" data-name="사각형 186" width="1.091" height="1.135" transform="translate(3.273 6.808)" fill="#e4e4e4"/>
            <rect id="사각형_187" data-name="사각형 187" width="1.091" height="1.135" transform="translate(2.181 6.808)" fill="#e4e4e4"/>
            <rect id="사각형_188" data-name="사각형 188" width="1.091" height="1.135" transform="translate(1.091 6.808)" fill="#e4e4e4"/>
            <rect id="사각형_189" data-name="사각형 189" width="1.091" height="1.135" transform="translate(0 6.808)" fill="#e4e4e4"/>
            <rect id="사각형_198" data-name="사각형 198" width="1.091" height="1.135" transform="translate(5.454 5.673)" fill="#1c1c1c"/>
            <rect id="사각형_199" data-name="사각형 199" width="1.091" height="1.135" transform="translate(4.363 5.673)" fill="#1c1c1c"/>
            <rect id="사각형_200" data-name="사각형 200" width="1.091" height="1.135" transform="translate(3.273 5.673)" fill="#1c1c1c"/>
            <rect id="사각형_201" data-name="사각형 201" width="1.091" height="1.135" transform="translate(2.181 5.673)" fill="#1c1c1c"/>
            <rect id="사각형_202" data-name="사각형 202" width="1.091" height="1.135" transform="translate(1.091 5.673)" fill="#1c1c1c"/>
            <rect id="사각형_203" data-name="사각형 203" width="1.091" height="1.135" transform="translate(0 5.673)" fill="#1c1c1c"/>
            <rect id="사각형_213" data-name="사각형 213" width="1.091" height="1.135" transform="translate(5.454 4.538)" fill="#1c1c1c"/>
            <rect id="사각형_214" data-name="사각형 214" width="1.091" height="1.135" transform="translate(4.363 4.538)" fill="#1c1c1c"/>
            <rect id="사각형_215" data-name="사각형 215" width="1.091" height="1.135" transform="translate(3.273 4.538)" fill="#1c1c1c"/>
            <rect id="사각형_216" data-name="사각형 216" width="1.091" height="1.135" transform="translate(2.181 4.538)" fill="#1c1c1c"/>
            <rect id="사각형_217" data-name="사각형 217" width="1.091" height="1.135" transform="translate(1.091 4.538)" fill="#1c1c1c"/>
            <rect id="사각형_218" data-name="사각형 218" width="1.091" height="1.135" transform="translate(0 4.538)" fill="#1c1c1c"/>
            <rect id="사각형_228" data-name="사각형 228" width="1.091" height="1.135" transform="translate(5.454 3.404)" fill="#1c1c1c"/>
            <rect id="사각형_229" data-name="사각형 229" width="1.091" height="1.135" transform="translate(4.363 3.404)" fill="#1c1c1c"/>
            <rect id="사각형_230" data-name="사각형 230" width="1.091" height="1.135" transform="translate(3.273 3.404)" fill="#1c1c1c"/>
            <rect id="사각형_231" data-name="사각형 231" width="1.091" height="1.135" transform="translate(2.181 3.404)" fill="#1c1c1c"/>
            <rect id="사각형_232" data-name="사각형 232" width="1.091" height="1.135" transform="translate(1.091 3.404)" fill="#1c1c1c"/>
            <rect id="사각형_233" data-name="사각형 233" width="1.091" height="1.135" transform="translate(0 3.404)" fill="#1c1c1c"/>
            <rect id="사각형_242" data-name="사각형 242" width="1.091" height="1.135" transform="translate(5.454 2.269)" fill="#1c1c1c"/>
            <rect id="사각형_243" data-name="사각형 243" width="1.091" height="1.135" transform="translate(4.363 2.269)" fill="#1c1c1c"/>
            <rect id="사각형_244" data-name="사각형 244" width="1.091" height="1.135" transform="translate(3.273 2.269)" fill="#1c1c1c"/>
            <rect id="사각형_245" data-name="사각형 245" width="1.091" height="1.135" transform="translate(2.181 2.269)" fill="#1c1c1c"/>
            <rect id="사각형_246" data-name="사각형 246" width="1.091" height="1.135" transform="translate(1.091 2.269)" fill="#1c1c1c"/>
            <rect id="사각형_247" data-name="사각형 247" width="1.091" height="1.135" transform="translate(0 2.269)" fill="#1c1c1c"/>
            <rect id="사각형_256" data-name="사각형 256" width="1.091" height="1.135" transform="translate(4.363 1.135)" fill="#1c1c1c"/>
            <rect id="사각형_257" data-name="사각형 257" width="1.091" height="1.135" transform="translate(3.273 1.135)" fill="#1c1c1c"/>
            <rect id="사각형_258" data-name="사각형 258" width="1.091" height="1.135" transform="translate(2.181 1.135)" fill="#1c1c1c"/>
            <rect id="사각형_259" data-name="사각형 259" width="1.091" height="1.135" transform="translate(1.091 1.135)" fill="#1c1c1c"/>
            <rect id="사각형_260" data-name="사각형 260" width="1.091" height="1.135" transform="translate(0 1.135)" fill="#1c1c1c"/>
            <rect id="사각형_268" data-name="사각형 268" width="1.091" height="1.135" transform="translate(3.273 0)" fill="#1c1c1c"/>
            <rect id="사각형_269" data-name="사각형 269" width="1.091" height="1.135" transform="translate(2.181 0)" fill="#1c1c1c"/>
            <rect id="사각형_270" data-name="사각형 270" width="1.091" height="1.135" transform="translate(1.091 0)" fill="#1c1c1c"/>
            <rect id="사각형_271" data-name="사각형 271" width="1.091" height="1.135" transform="translate(0 0)" fill="#1c1c1c"/>
        </g>
        <g id="그룹_46" data-name="그룹 46" transform="translate(3.273 0)">
            <rect id="사각형_83" data-name="사각형 83" width="1.091" height="1.135" transform="translate(5.454 15.885)" fill="#1c1c1c"/>
            <rect id="사각형_84" data-name="사각형 84" width="1.091" height="1.135" transform="translate(4.363 15.885)" fill="#1c1c1c"/>
            <rect id="사각형_85" data-name="사각형 85" width="1.091" height="1.135" transform="translate(3.273 15.885)" fill="#1c1c1c"/>
            <rect id="사각형_86" data-name="사각형 86" width="1.091" height="1.135" transform="translate(2.181 15.885)" fill="#1c1c1c"/>
            <rect id="사각형_93" data-name="사각형 93" width="1.091" height="1.135" transform="translate(5.454 14.75)" fill="#e4e4e4"/>
            <rect id="사각형_94" data-name="사각형 94" width="1.091" height="1.135" transform="translate(4.363 14.75)" fill="#e4e4e4"/>
            <rect id="사각형_95" data-name="사각형 95" width="1.091" height="1.135" transform="translate(3.273 14.75)" fill="#e4e4e4"/>
            <rect id="사각형_96" data-name="사각형 96" width="1.091" height="1.135" transform="translate(2.181 14.75)" fill="#e4e4e4"/>
            <rect id="사각형_97" data-name="사각형 97" width="1.091" height="1.135" transform="translate(1.091 14.75)" fill="#1c1c1c"/>
            <rect id="사각형_105" data-name="사각형 105" width="1.091" height="1.135" transform="translate(5.454 13.616)" fill="#1c1c1c"/>
            <rect id="사각형_106" data-name="사각형 106" width="1.091" height="1.135" transform="translate(4.363 13.616)" fill="#e4e4e4"/>
            <rect id="사각형_107" data-name="사각형 107" width="1.091" height="1.135" transform="translate(3.273 13.616)" fill="#e4e4e4"/>
            <rect id="사각형_108" data-name="사각형 108" width="1.091" height="1.135" transform="translate(2.181 13.616)" fill="#e4e4e4"/>
            <rect id="사각형_109" data-name="사각형 109" width="1.091" height="1.135" transform="translate(1.091 13.616)" fill="#e4e4e4"/>
            <rect id="사각형_110" data-name="사각형 110" width="1.091" height="1.135" transform="translate(0 13.616)" fill="#1c1c1c"/>
            <rect id="사각형_118" data-name="사각형 118" width="1.091" height="1.135" transform="translate(5.454 12.481)" fill="#e4e4e4"/>
            <rect id="사각형_119" data-name="사각형 119" width="1.091" height="1.135" transform="translate(4.363 12.481)" fill="#1c1c1c"/>
            <rect id="사각형_120" data-name="사각형 120" width="1.091" height="1.135" transform="translate(3.273 12.481)" fill="#e4e4e4"/>
            <rect id="사각형_121" data-name="사각형 121" width="1.091" height="1.135" transform="translate(2.181 12.481)" fill="#e4e4e4"/>
            <rect id="사각형_122" data-name="사각형 122" width="1.091" height="1.135" transform="translate(1.091 12.481)" fill="#e4e4e4"/>
            <rect id="사각형_123" data-name="사각형 123" width="1.091" height="1.135" transform="translate(0 12.481)" fill="#e4e4e4"/>
            <rect id="사각형_131" data-name="사각형 131" width="1.091" height="1.135" transform="translate(5.454 11.346)" fill="#e4e4e4"/>
            <rect id="사각형_132" data-name="사각형 132" width="1.091" height="1.135" transform="translate(4.363 11.346)" fill="#e4e4e4"/>
            <rect id="사각형_133" data-name="사각형 133" width="1.091" height="1.135" transform="translate(3.273 11.346)" fill="#e4e4e4"/>
            <rect id="사각형_134" data-name="사각형 134" width="1.091" height="1.135" transform="translate(2.181 11.346)" fill="#e4e4e4"/>
            <rect id="사각형_135" data-name="사각형 135" width="1.091" height="1.135" transform="translate(1.091 11.346)" fill="#e4e4e4"/>
            <rect id="사각형_136" data-name="사각형 136" width="1.091" height="1.135" transform="translate(0 11.346)" fill="#e4e4e4"/>
            <rect id="사각형_145" data-name="사각형 145" width="1.091" height="1.135" transform="translate(5.454 10.212)" fill="#e4e4e4"/>
            <rect id="사각형_146" data-name="사각형 146" width="1.091" height="1.135" transform="translate(4.363 10.212)" fill="#1c1c1c"/>
            <rect id="사각형_147" data-name="사각형 147" width="1.091" height="1.135" transform="translate(3.273 10.212)" fill="#e4e4e4"/>
            <rect id="사각형_148" data-name="사각형 148" width="1.091" height="1.135" transform="translate(2.181 10.212)" fill="#e4e4e4"/>
            <rect id="사각형_149" data-name="사각형 149" width="1.091" height="1.135" transform="translate(1.091 10.212)" fill="#e4e4e4"/>
            <rect id="사각형_150" data-name="사각형 150" width="1.091" height="1.135" transform="translate(0 10.212)" fill="#e4e4e4"/>
            <rect id="사각형_160" data-name="사각형 160" width="1.091" height="1.135" transform="translate(5.454 9.077)" fill="#e4e4e4"/>
            <rect id="사각형_161" data-name="사각형 161" width="1.091" height="1.135" transform="translate(4.363 9.077)" fill="#1c1c1c"/>
            <rect id="사각형_162" data-name="사각형 162" width="1.091" height="1.135" transform="translate(3.273 9.077)" fill="#e4e4e4"/>
            <rect id="사각형_163" data-name="사각형 163" width="1.091" height="1.135" transform="translate(2.181 9.077)" fill="#e4e4e4"/>
            <rect id="사각형_164" data-name="사각형 164" width="1.091" height="1.135" transform="translate(1.091 9.077)" fill="#e4e4e4"/>
            <rect id="사각형_165" data-name="사각형 165" width="1.091" height="1.135" transform="translate(0 9.077)" fill="#e4e4e4"/>
            <rect id="사각형_175" data-name="사각형 175" width="1.091" height="1.135" transform="translate(5.454 7.942)" fill="#1c1c1c"/>
            <rect id="사각형_176" data-name="사각형 176" width="1.091" height="1.135" transform="translate(4.363 7.942)" fill="#1c1c1c"/>
            <rect id="사각형_177" data-name="사각형 177" width="1.091" height="1.135" transform="translate(3.273 7.942)" fill="#e4e4e4"/>
            <rect id="사각형_178" data-name="사각형 178" width="1.091" height="1.135" transform="translate(2.181 7.942)" fill="#e4e4e4"/>
            <rect id="사각형_179" data-name="사각형 179" width="1.091" height="1.135" transform="translate(1.091 7.942)" fill="#e4e4e4"/>
            <rect id="사각형_180" data-name="사각형 180" width="1.091" height="1.135" transform="translate(0 7.942)" fill="#1c1c1c"/>
            <rect id="사각형_190" data-name="사각형 190" width="1.091" height="1.135" transform="translate(5.454 6.808)" fill="#e4e4e4"/>
            <rect id="사각형_191" data-name="사각형 191" width="1.091" height="1.135" transform="translate(4.363 6.808)" fill="#e4e4e4"/>
            <rect id="사각형_192" data-name="사각형 192" width="1.091" height="1.135" transform="translate(3.273 6.808)" fill="#e4e4e4"/>
            <rect id="사각형_193" data-name="사각형 193" width="1.091" height="1.135" transform="translate(2.181 6.808)" fill="#e4e4e4"/>
            <rect id="사각형_194" data-name="사각형 194" width="1.091" height="1.135" transform="translate(1.091 6.808)" fill="#e4e4e4"/>
            <rect id="사각형_195" data-name="사각형 195" width="1.091" height="1.135" transform="translate(0 6.808)" fill="#1c1c1c"/>
            <rect id="사각형_204" data-name="사각형 204" width="1.091" height="1.135" transform="translate(5.454 5.673)" fill="#1c1c1c"/>
            <rect id="사각형_205" data-name="사각형 205" width="1.091" height="1.135" transform="translate(4.363 5.673)" fill="#e4e4e4"/>
            <rect id="사각형_206" data-name="사각형 206" width="1.091" height="1.135" transform="translate(3.273 5.673)" fill="#e4e4e4"/>
            <rect id="사각형_207" data-name="사각형 207" width="1.091" height="1.135" transform="translate(2.181 5.673)" fill="#e4e4e4"/>
            <rect id="사각형_208" data-name="사각형 208" width="1.091" height="1.135" transform="translate(1.091 5.673)" fill="#e4e4e4"/>
            <rect id="사각형_209" data-name="사각형 209" width="1.091" height="1.135" transform="translate(0 5.673)" fill="#1c1c1c"/>
            <rect id="사각형_219" data-name="사각형 219" width="1.091" height="1.135" transform="translate(5.454 4.538)" fill="#1c1c1c"/>
            <rect id="사각형_220" data-name="사각형 220" width="1.091" height="1.135" transform="translate(4.363 4.538)" fill="#1c1c1c"/>
            <rect id="사각형_221" data-name="사각형 221" width="1.091" height="1.135" transform="translate(3.273 4.538)" fill="#e4e4e4"/>
            <rect id="사각형_222" data-name="사각형 222" width="1.091" height="1.135" transform="translate(2.181 4.538)" fill="#e4e4e4"/>
            <rect id="사각형_223" data-name="사각형 223" width="1.091" height="1.135" transform="translate(1.091 4.538)" fill="#1c1c1c"/>
            <rect id="사각형_224" data-name="사각형 224" width="1.091" height="1.135" transform="translate(0 4.538)" fill="#1c1c1c"/>
            <rect id="사각형_234" data-name="사각형 234" width="1.091" height="1.135" transform="translate(5.454 3.404)" fill="#1c1c1c"/>
            <rect id="사각형_235" data-name="사각형 235" width="1.091" height="1.135" transform="translate(4.363 3.404)" fill="#1c1c1c"/>
            <rect id="사각형_236" data-name="사각형 236" width="1.091" height="1.135" transform="translate(3.273 3.404)" fill="#1c1c1c"/>
            <rect id="사각형_237" data-name="사각형 237" width="1.091" height="1.135" transform="translate(2.181 3.404)" fill="#1c1c1c"/>
            <rect id="사각형_238" data-name="사각형 238" width="1.091" height="1.135" transform="translate(1.091 3.404)" fill="#1c1c1c"/>
            <rect id="사각형_239" data-name="사각형 239" width="1.091" height="1.135" transform="translate(0 3.404)" fill="#1c1c1c"/>
            <rect id="사각형_248" data-name="사각형 248" width="1.091" height="1.135" transform="translate(5.454 2.269)" fill="#1c1c1c"/>
            <rect id="사각형_249" data-name="사각형 249" width="1.091" height="1.135" transform="translate(4.363 2.269)" fill="#1c1c1c"/>
            <rect id="사각형_250" data-name="사각형 250" width="1.091" height="1.135" transform="translate(3.273 2.269)" fill="#1c1c1c"/>
            <rect id="사각형_251" data-name="사각형 251" width="1.091" height="1.135" transform="translate(2.181 2.269)" fill="#1c1c1c"/>
            <rect id="사각형_252" data-name="사각형 252" width="1.091" height="1.135" transform="translate(1.091 2.269)" fill="#1c1c1c"/>
            <rect id="사각형_253" data-name="사각형 253" width="1.091" height="1.135" transform="translate(0 2.269)" fill="#1c1c1c"/>
            <rect id="사각형_261" data-name="사각형 261" width="1.091" height="1.135" transform="translate(5.454 1.135)" fill="#1c1c1c"/>
            <rect id="사각형_262" data-name="사각형 262" width="1.091" height="1.135" transform="translate(4.363 1.135)" fill="#1c1c1c"/>
            <rect id="사각형_263" data-name="사각형 263" width="1.091" height="1.135" transform="translate(3.273 1.135)" fill="#1c1c1c"/>
            <rect id="사각형_264" data-name="사각형 264" width="1.091" height="1.135" transform="translate(2.181 1.135)" fill="#1c1c1c"/>
            <rect id="사각형_265" data-name="사각형 265" width="1.091" height="1.135" transform="translate(1.091 1.135)" fill="#1c1c1c"/>
            <rect id="사각형_266" data-name="사각형 266" width="1.091" height="1.135" transform="translate(0 1.135)" fill="#1c1c1c"/>
            <rect id="사각형_272" data-name="사각형 272" width="1.091" height="1.135" transform="translate(5.454 0)" fill="#1c1c1c"/>
            <rect id="사각형_273" data-name="사각형 273" width="1.091" height="1.135" transform="translate(4.363 0)" fill="#1c1c1c"/>
            <rect id="사각형_274" data-name="사각형 274" width="1.091" height="1.135" transform="translate(3.273 0)" fill="#1c1c1c"/>
            <rect id="사각형_275" data-name="사각형 275" width="1.091" height="1.135" transform="translate(2.181 0)" fill="#1c1c1c"/>
            <rect id="사각형_276" data-name="사각형 276" width="1.091" height="1.135" transform="translate(1.091 0)" fill="#1c1c1c"/>
            <rect id="사각형_277" data-name="사각형 277" width="1.091" height="1.135" transform="translate(0 0)" fill="#1c1c1c"/>
        </g>
        <g id="그룹_45" data-name="그룹 45" transform="translate(0 1.135)">
            <rect id="사각형_124" data-name="사각형 124" width="1.091" height="1.135" transform="translate(2.181 11.346)" fill="#1c1c1c"/>
            <rect id="사각형_137" data-name="사각형 137" width="1.091" height="1.135" transform="translate(2.181 10.212)" fill="#1c1c1c"/>
            <rect id="사각형_138" data-name="사각형 138" width="1.091" height="1.135" transform="translate(1.091 10.212)" fill="#1c1c1c"/>
            <rect id="사각형_151" data-name="사각형 151" width="1.091" height="1.135" transform="translate(2.181 9.077)" fill="#e4e4e4"/>
            <rect id="사각형_152" data-name="사각형 152" width="1.091" height="1.135" transform="translate(1.091 9.077)" fill="#e4e4e4"/>
            <rect id="사각형_153" data-name="사각형 153" width="1.091" height="1.135" transform="translate(0 9.077)" fill="#1c1c1c"/>
            <rect id="사각형_166" data-name="사각형 166" width="1.091" height="1.135" transform="translate(2.181 7.943)" fill="#1c1c1c"/>
            <rect id="사각형_167" data-name="사각형 167" width="1.091" height="1.135" transform="translate(1.091 7.943)" fill="#e4e4e4"/>
            <rect id="사각형_168" data-name="사각형 168" width="1.091" height="1.135" transform="translate(0 7.943)" fill="#1c1c1c"/>
            <rect id="사각형_181" data-name="사각형 181" width="1.091" height="1.135" transform="translate(2.181 6.808)" fill="#e4e4e4"/>
            <rect id="사각형_182" data-name="사각형 182" width="1.091" height="1.135" transform="translate(1.091 6.808)" fill="#e4e4e4"/>
            <rect id="사각형_183" data-name="사각형 183" width="1.091" height="1.135" transform="translate(0 6.808)" fill="#1c1c1c"/>
            <rect id="사각형_196" data-name="사각형 196" width="1.091" height="1.135" transform="translate(2.181 5.673)" fill="#1c1c1c"/>
            <rect id="사각형_197" data-name="사각형 197" width="1.091" height="1.135" transform="translate(1.091 5.673)" fill="#1c1c1c"/>
            <rect id="사각형_210" data-name="사각형 210" width="1.091" height="1.135" transform="translate(2.181 4.539)" fill="#1c1c1c"/>
            <rect id="사각형_211" data-name="사각형 211" width="1.091" height="1.135" transform="translate(1.091 4.539)" fill="#1c1c1c"/>
            <rect id="사각형_225" data-name="사각형 225" width="1.091" height="1.135" transform="translate(2.181 3.404)" fill="#1c1c1c"/>
            <rect id="사각형_226" data-name="사각형 226" width="1.091" height="1.135" transform="translate(1.091 3.404)" fill="#1c1c1c"/>
            <rect id="사각형_240" data-name="사각형 240" width="1.091" height="1.135" transform="translate(2.181 2.269)" fill="#1c1c1c"/>
            <rect id="사각형_241" data-name="사각형 241" width="1.091" height="1.135" transform="translate(1.091 2.269)" fill="#1c1c1c"/>
            <rect id="사각형_254" data-name="사각형 254" width="1.091" height="1.135" transform="translate(2.181 1.135)" fill="#1c1c1c"/>
            <rect id="사각형_255" data-name="사각형 255" width="1.091" height="1.135" transform="translate(1.091 1.135)" fill="#1c1c1c"/>
            <rect id="사각형_267" data-name="사각형 267" width="1.091" height="1.135" transform="translate(2.181 0)" fill="#1c1c1c"/>
        </g>
    </g>
</svg>

