<svg id="Like" xmlns="http://www.w3.org/2000/svg" width="12.052" height="14.805" viewBox="0 0 12.052 14.805">
    <rect id="사각형_279" data-name="사각형 279" width="0.67" height="0.644" transform="translate(11.383 10.299)"/>
    <rect id="사각형_280" data-name="사각형 280" width="0.67" height="0.644" transform="translate(11.383 9.655)"/>
    <rect id="사각형_281" data-name="사각형 281" width="0.67" height="0.644" transform="translate(11.383 9.012)"/>
    <rect id="사각형_282" data-name="사각형 282" width="0.67" height="0.644" transform="translate(11.383 8.368)"/>
    <rect id="사각형_283" data-name="사각형 283" width="0.67" height="0.644" transform="translate(11.383 7.724)"/>
    <rect id="사각형_284" data-name="사각형 284" width="0.67" height="0.644" transform="translate(11.383 7.081)"/>
    <rect id="사각형_285" data-name="사각형 285" width="0.67" height="0.644" transform="translate(11.383 6.437)"/>
    <rect id="사각형_286" data-name="사각형 286" width="0.67" height="0.644" transform="translate(11.383 5.793)"/>
    <rect id="사각형_287" data-name="사각형 287" width="0.67" height="0.644" transform="translate(10.714 12.874)"/>
    <rect id="사각형_288" data-name="사각형 288" width="0.67" height="0.644" transform="translate(10.714 12.23)"/>
    <rect id="사각형_289" data-name="사각형 289" width="0.67" height="0.644" transform="translate(10.714 11.586)"/>
    <rect id="사각형_290" data-name="사각형 290" width="0.67" height="0.644" transform="translate(10.714 10.943)"/>
    <rect id="사각형_291" data-name="사각형 291" width="0.67" height="0.644" transform="translate(10.714 10.299)" fill="#424242"/>
    <rect id="사각형_292" data-name="사각형 292" width="0.67" height="0.644" transform="translate(10.714 9.655)" fill="#686868"/>
    <rect id="사각형_293" data-name="사각형 293" width="0.67" height="0.644" transform="translate(10.714 9.012)" fill="#686868"/>
    <rect id="사각형_294" data-name="사각형 294" width="0.67" height="0.644" transform="translate(10.714 8.368)" fill="#686868"/>
    <rect id="사각형_295" data-name="사각형 295" width="0.67" height="0.644" transform="translate(10.714 7.724)" fill="#686868"/>
    <rect id="사각형_296" data-name="사각형 296" width="0.67" height="0.644" transform="translate(10.714 7.081)" fill="#686868"/>
    <rect id="사각형_297" data-name="사각형 297" width="0.67" height="0.644" transform="translate(10.714 6.437)" fill="#686868"/>
    <rect id="사각형_298" data-name="사각형 298" width="0.67" height="0.644" transform="translate(10.714 5.793)" fill="#686868"/>
    <rect id="사각형_299" data-name="사각형 299" width="0.67" height="0.644" transform="translate(10.714 5.149)"/>
    <rect id="사각형_300" data-name="사각형 300" width="0.67" height="0.644" transform="translate(10.044 13.517)"/>
    <rect id="사각형_301" data-name="사각형 301" width="0.67" height="0.644" transform="translate(10.044 12.874)" fill="#424242"/>
    <rect id="사각형_302" data-name="사각형 302" width="0.67" height="0.644" transform="translate(10.044 12.23)" fill="#424242"/>
    <rect id="사각형_303" data-name="사각형 303" width="0.67" height="0.644" transform="translate(10.044 11.586)" fill="#686868"/>
    <rect id="사각형_304" data-name="사각형 304" width="0.67" height="0.644" transform="translate(10.044 10.943)" fill="#424242"/>
    <rect id="사각형_305" data-name="사각형 305" width="0.67" height="0.644" transform="translate(10.044 10.299)" fill="#aaa"/>
    <rect id="사각형_306" data-name="사각형 306" width="0.67" height="0.644" transform="translate(10.044 9.655)" fill="#aaa"/>
    <rect id="사각형_307" data-name="사각형 307" width="0.67" height="0.644" transform="translate(10.044 9.012)" fill="#686868"/>
    <rect id="사각형_308" data-name="사각형 308" width="0.67" height="0.644" transform="translate(10.044 8.368)" fill="#aaa"/>
    <rect id="사각형_309" data-name="사각형 309" width="0.67" height="0.644" transform="translate(10.044 7.724)" fill="#aaa"/>
    <rect id="사각형_310" data-name="사각형 310" width="0.67" height="0.644" transform="translate(10.044 7.081)" fill="#686868"/>
    <rect id="사각형_311" data-name="사각형 311" width="0.67" height="0.644" transform="translate(10.044 6.437)" fill="#aaa"/>
    <rect id="사각형_312" data-name="사각형 312" width="0.67" height="0.644" transform="translate(10.044 5.793)" fill="#aaa"/>
    <rect id="사각형_313" data-name="사각형 313" width="0.67" height="0.644" transform="translate(10.044 5.149)" fill="#686868"/>
    <rect id="사각형_314" data-name="사각형 314" width="0.67" height="0.644" transform="translate(10.044 4.506)"/>
    <rect id="사각형_315" data-name="사각형 315" width="0.67" height="0.644" transform="translate(9.374 14.161)"/>
    <rect id="사각형_316" data-name="사각형 316" width="0.67" height="0.644" transform="translate(9.374 13.517)" fill="#424242"/>
    <rect id="사각형_317" data-name="사각형 317" width="0.67" height="0.644" transform="translate(9.374 12.874)" fill="#424242"/>
    <rect id="사각형_318" data-name="사각형 318" width="0.67" height="0.644" transform="translate(9.374 12.23)" fill="#aaa"/>
    <rect id="사각형_319" data-name="사각형 319" width="0.67" height="0.644" transform="translate(9.374 11.586)" fill="#aaa"/>
    <rect id="사각형_320" data-name="사각형 320" width="0.67" height="0.644" transform="translate(9.374 10.943)" fill="#686868"/>
    <rect id="사각형_321" data-name="사각형 321" width="0.67" height="0.644" transform="translate(9.374 10.299)" fill="#aaa"/>
    <rect id="사각형_322" data-name="사각형 322" width="0.67" height="0.644" transform="translate(9.374 9.655)" fill="#aaa"/>
    <rect id="사각형_323" data-name="사각형 323" width="0.67" height="0.644" transform="translate(9.374 9.012)" fill="#686868"/>
    <rect id="사각형_324" data-name="사각형 324" width="0.67" height="0.644" transform="translate(9.374 8.368)" fill="#aaa"/>
    <rect id="사각형_325" data-name="사각형 325" width="0.67" height="0.644" transform="translate(9.374 7.724)" fill="#aaa"/>
    <rect id="사각형_326" data-name="사각형 326" width="0.67" height="0.644" transform="translate(9.374 7.081)" fill="#686868"/>
    <rect id="사각형_327" data-name="사각형 327" width="0.67" height="0.644" transform="translate(9.374 6.437)" fill="#aaa"/>
    <rect id="사각형_328" data-name="사각형 328" width="0.67" height="0.644" transform="translate(9.374 5.793)" fill="#aaa"/>
    <rect id="사각형_329" data-name="사각형 329" width="0.67" height="0.644" transform="translate(9.374 5.149)" fill="#686868"/>
    <rect id="사각형_330" data-name="사각형 330" width="0.67" height="0.644" transform="translate(9.374 4.506)"/>
    <rect id="사각형_331" data-name="사각형 331" width="0.67" height="0.644" transform="translate(8.705 14.161)"/>
    <rect id="사각형_332" data-name="사각형 332" width="0.67" height="0.644" transform="translate(8.705 13.517)" fill="#424242"/>
    <rect id="사각형_333" data-name="사각형 333" width="0.67" height="0.644" transform="translate(8.705 12.874)" fill="#424242"/>
    <rect id="사각형_334" data-name="사각형 334" width="0.67" height="0.644" transform="translate(8.705 12.23)" fill="#aaa"/>
    <rect id="사각형_335" data-name="사각형 335" width="0.67" height="0.644" transform="translate(8.705 11.586)" fill="#aaa"/>
    <rect id="사각형_336" data-name="사각형 336" width="0.67" height="0.644" transform="translate(8.705 10.943)" fill="#686868"/>
    <rect id="사각형_337" data-name="사각형 337" width="0.67" height="0.644" transform="translate(8.705 10.299)" fill="#aaa"/>
    <rect id="사각형_338" data-name="사각형 338" width="0.67" height="0.644" transform="translate(8.705 9.655)" fill="#aaa"/>
    <rect id="사각형_339" data-name="사각형 339" width="0.67" height="0.644" transform="translate(8.705 9.012)" fill="#686868"/>
    <rect id="사각형_340" data-name="사각형 340" width="0.67" height="0.644" transform="translate(8.705 8.368)" fill="#aaa"/>
    <rect id="사각형_341" data-name="사각형 341" width="0.67" height="0.644" transform="translate(8.705 7.724)" fill="#aaa"/>
    <rect id="사각형_342" data-name="사각형 342" width="0.67" height="0.644" transform="translate(8.705 7.081)" fill="#686868"/>
    <rect id="사각형_343" data-name="사각형 343" width="0.67" height="0.644" transform="translate(8.705 6.437)" fill="#aaa"/>
    <rect id="사각형_344" data-name="사각형 344" width="0.67" height="0.644" transform="translate(8.705 5.793)" fill="#aaa"/>
    <rect id="사각형_345" data-name="사각형 345" width="0.67" height="0.644" transform="translate(8.705 5.149)" fill="#686868"/>
    <rect id="사각형_346" data-name="사각형 346" width="0.67" height="0.644" transform="translate(8.705 4.506)"/>
    <rect id="사각형_347" data-name="사각형 347" width="0.67" height="0.644" transform="translate(8.035 14.161)"/>
    <rect id="사각형_348" data-name="사각형 348" width="0.67" height="0.644" transform="translate(8.035 13.517)" fill="#424242"/>
    <rect id="사각형_349" data-name="사각형 349" width="0.67" height="0.644" transform="translate(8.035 12.874)" fill="#424242"/>
    <rect id="사각형_350" data-name="사각형 350" width="0.67" height="0.644" transform="translate(8.035 12.23)" fill="#aaa"/>
    <rect id="사각형_351" data-name="사각형 351" width="0.67" height="0.644" transform="translate(8.035 11.586)" fill="#aaa"/>
    <rect id="사각형_352" data-name="사각형 352" width="0.67" height="0.644" transform="translate(8.035 10.943)" fill="#686868"/>
    <rect id="사각형_353" data-name="사각형 353" width="0.67" height="0.644" transform="translate(8.035 10.299)" fill="#aaa"/>
    <rect id="사각형_354" data-name="사각형 354" width="0.67" height="0.644" transform="translate(8.035 9.655)" fill="#aaa"/>
    <rect id="사각형_355" data-name="사각형 355" width="0.67" height="0.644" transform="translate(8.035 9.012)" fill="#686868"/>
    <rect id="사각형_356" data-name="사각형 356" width="0.67" height="0.644" transform="translate(8.035 8.368)" fill="#aaa"/>
    <rect id="사각형_357" data-name="사각형 357" width="0.67" height="0.644" transform="translate(8.035 7.724)" fill="#aaa"/>
    <rect id="사각형_358" data-name="사각형 358" width="0.67" height="0.644" transform="translate(8.035 7.081)" fill="#686868"/>
    <rect id="사각형_359" data-name="사각형 359" width="0.67" height="0.644" transform="translate(8.035 6.437)" fill="#aaa"/>
    <rect id="사각형_360" data-name="사각형 360" width="0.67" height="0.644" transform="translate(8.035 5.793)" fill="#aaa"/>
    <rect id="사각형_361" data-name="사각형 361" width="0.67" height="0.644" transform="translate(8.035 5.149)" fill="#686868"/>
    <rect id="사각형_362" data-name="사각형 362" width="0.67" height="0.644" transform="translate(8.035 4.506)"/>
    <rect id="사각형_363" data-name="사각형 363" width="0.67" height="0.644" transform="translate(7.365 14.161)"/>
    <rect id="사각형_364" data-name="사각형 364" width="0.67" height="0.644" transform="translate(7.365 13.517)" fill="#424242"/>
    <rect id="사각형_365" data-name="사각형 365" width="0.67" height="0.644" transform="translate(7.365 12.874)" fill="#424242"/>
    <rect id="사각형_366" data-name="사각형 366" width="0.67" height="0.644" transform="translate(7.365 12.23)" fill="#aaa"/>
    <rect id="사각형_367" data-name="사각형 367" width="0.67" height="0.644" transform="translate(7.365 11.586)" fill="#aaa"/>
    <rect id="사각형_368" data-name="사각형 368" width="0.67" height="0.644" transform="translate(7.365 10.943)" fill="#686868"/>
    <rect id="사각형_369" data-name="사각형 369" width="0.67" height="0.644" transform="translate(7.365 10.299)" fill="#aaa"/>
    <rect id="사각형_370" data-name="사각형 370" width="0.67" height="0.644" transform="translate(7.365 9.655)" fill="#aaa"/>
    <rect id="사각형_371" data-name="사각형 371" width="0.67" height="0.644" transform="translate(7.365 9.012)" fill="#686868"/>
    <rect id="사각형_372" data-name="사각형 372" width="0.67" height="0.644" transform="translate(7.365 8.368)" fill="#aaa"/>
    <rect id="사각형_373" data-name="사각형 373" width="0.67" height="0.644" transform="translate(7.365 7.724)" fill="#aaa"/>
    <rect id="사각형_374" data-name="사각형 374" width="0.67" height="0.644" transform="translate(7.365 7.081)" fill="#686868"/>
    <rect id="사각형_375" data-name="사각형 375" width="0.67" height="0.644" transform="translate(7.365 6.437)" fill="#aaa"/>
    <rect id="사각형_376" data-name="사각형 376" width="0.67" height="0.644" transform="translate(7.365 5.793)" fill="#aaa"/>
    <rect id="사각형_377" data-name="사각형 377" width="0.67" height="0.644" transform="translate(7.365 5.149)" fill="#686868"/>
    <rect id="사각형_378" data-name="사각형 378" width="0.67" height="0.644" transform="translate(7.365 4.506)"/>
    <rect id="사각형_379" data-name="사각형 379" width="0.67" height="0.644" transform="translate(6.696 14.161)"/>
    <rect id="사각형_380" data-name="사각형 380" width="0.67" height="0.644" transform="translate(6.696 13.517)" fill="#424242"/>
    <rect id="사각형_381" data-name="사각형 381" width="0.67" height="0.644" transform="translate(6.696 12.874)" fill="#424242"/>
    <rect id="사각형_382" data-name="사각형 382" width="0.67" height="0.644" transform="translate(6.696 12.23)" fill="#aaa"/>
    <rect id="사각형_383" data-name="사각형 383" width="0.67" height="0.644" transform="translate(6.696 11.586)" fill="#aaa"/>
    <rect id="사각형_384" data-name="사각형 384" width="0.67" height="0.644" transform="translate(6.696 10.943)" fill="#424242"/>
    <rect id="사각형_385" data-name="사각형 385" width="0.67" height="0.644" transform="translate(6.696 10.299)" fill="#aaa"/>
    <rect id="사각형_386" data-name="사각형 386" width="0.67" height="0.644" transform="translate(6.696 9.655)" fill="#aaa"/>
    <rect id="사각형_387" data-name="사각형 387" width="0.67" height="0.644" transform="translate(6.696 9.012)" fill="#424242"/>
    <rect id="사각형_388" data-name="사각형 388" width="0.67" height="0.644" transform="translate(6.696 8.368)" fill="#aaa"/>
    <rect id="사각형_389" data-name="사각형 389" width="0.67" height="0.644" transform="translate(6.696 7.724)" fill="#aaa"/>
    <rect id="사각형_390" data-name="사각형 390" width="0.67" height="0.644" transform="translate(6.696 7.081)" fill="#424242"/>
    <rect id="사각형_391" data-name="사각형 391" width="0.67" height="0.644" transform="translate(6.696 6.437)" fill="#aaa"/>
    <rect id="사각형_392" data-name="사각형 392" width="0.67" height="0.644" transform="translate(6.696 5.793)" fill="#aaa"/>
    <rect id="사각형_393" data-name="사각형 393" width="0.67" height="0.644" transform="translate(6.696 5.149)" fill="#686868"/>
    <rect id="사각형_394" data-name="사각형 394" width="0.67" height="0.644" transform="translate(6.696 4.506)"/>
    <rect id="사각형_395" data-name="사각형 395" width="0.67" height="0.644" transform="translate(6.026 14.161)"/>
    <rect id="사각형_396" data-name="사각형 396" width="0.67" height="0.644" transform="translate(6.026 13.517)" fill="#424242"/>
    <rect id="사각형_397" data-name="사각형 397" width="0.67" height="0.644" transform="translate(6.026 12.874)" fill="#424242"/>
    <rect id="사각형_398" data-name="사각형 398" width="0.67" height="0.644" transform="translate(6.026 12.23)" fill="#aaa"/>
    <rect id="사각형_399" data-name="사각형 399" width="0.67" height="0.644" transform="translate(6.026 11.586)" fill="#aaa"/>
    <rect id="사각형_400" data-name="사각형 400" width="0.67" height="0.644" transform="translate(6.026 10.943)" fill="#424242"/>
    <rect id="사각형_401" data-name="사각형 401" width="0.67" height="0.644" transform="translate(6.026 10.299)" fill="#aaa"/>
    <rect id="사각형_402" data-name="사각형 402" width="0.67" height="0.644" transform="translate(6.026 9.655)" fill="#aaa"/>
    <rect id="사각형_403" data-name="사각형 403" width="0.67" height="0.644" transform="translate(6.026 9.012)" fill="#424242"/>
    <rect id="사각형_404" data-name="사각형 404" width="0.67" height="0.644" transform="translate(6.026 8.368)" fill="#aaa"/>
    <rect id="사각형_405" data-name="사각형 405" width="0.67" height="0.644" transform="translate(6.026 7.724)" fill="#aaa"/>
    <rect id="사각형_406" data-name="사각형 406" width="0.67" height="0.644" transform="translate(6.026 7.081)" fill="#424242"/>
    <rect id="사각형_407" data-name="사각형 407" width="0.67" height="0.644" transform="translate(6.026 6.437)" fill="#aaa"/>
    <rect id="사각형_408" data-name="사각형 408" width="0.67" height="0.644" transform="translate(6.026 5.793)" fill="#aaa"/>
    <rect id="사각형_409" data-name="사각형 409" width="0.67" height="0.644" transform="translate(6.026 5.149)" fill="#686868"/>
    <rect id="사각형_410" data-name="사각형 410" width="0.67" height="0.644" transform="translate(6.026 4.506)"/>
    <rect id="사각형_411" data-name="사각형 411" width="0.67" height="0.644" transform="translate(6.026 3.218)"/>
    <rect id="사각형_412" data-name="사각형 412" width="0.67" height="0.644" transform="translate(6.026 2.575)"/>
    <rect id="사각형_413" data-name="사각형 413" width="0.67" height="0.644" transform="translate(6.026 1.931)"/>
    <rect id="사각형_414" data-name="사각형 414" width="0.67" height="0.644" transform="translate(6.026 1.287)"/>
    <rect id="사각형_415" data-name="사각형 415" width="0.67" height="0.644" transform="translate(5.357 14.161)"/>
    <rect id="사각형_416" data-name="사각형 416" width="0.67" height="0.644" transform="translate(5.357 13.517)" fill="#424242"/>
    <rect id="사각형_417" data-name="사각형 417" width="0.67" height="0.644" transform="translate(5.357 12.874)" fill="#424242"/>
    <rect id="사각형_418" data-name="사각형 418" width="0.67" height="0.644" transform="translate(5.357 12.23)" fill="#424242"/>
    <rect id="사각형_419" data-name="사각형 419" width="0.67" height="0.644" transform="translate(5.357 11.586)" fill="#424242"/>
    <rect id="사각형_420" data-name="사각형 420" width="0.67" height="0.644" transform="translate(5.357 10.943)" fill="#aaa"/>
    <rect id="사각형_421" data-name="사각형 421" width="0.67" height="0.644" transform="translate(5.357 10.299)" fill="#424242"/>
    <rect id="사각형_422" data-name="사각형 422" width="0.67" height="0.644" transform="translate(5.357 9.655)" fill="#424242"/>
    <rect id="사각형_423" data-name="사각형 423" width="0.67" height="0.644" transform="translate(5.357 9.012)" fill="#424242"/>
    <rect id="사각형_424" data-name="사각형 424" width="0.67" height="0.644" transform="translate(5.357 8.368)" fill="#424242"/>
    <rect id="사각형_425" data-name="사각형 425" width="0.67" height="0.644" transform="translate(5.357 7.724)" fill="#424242"/>
    <rect id="사각형_426" data-name="사각형 426" width="0.67" height="0.644" transform="translate(5.357 7.081)" fill="#686868"/>
    <rect id="사각형_427" data-name="사각형 427" width="0.67" height="0.644" transform="translate(5.357 6.437)" fill="#424242"/>
    <rect id="사각형_428" data-name="사각형 428" width="0.67" height="0.644" transform="translate(5.357 5.793)" fill="#424242"/>
    <rect id="사각형_429" data-name="사각형 429" width="0.67" height="0.644" transform="translate(5.357 5.149)" fill="#686868"/>
    <rect id="사각형_430" data-name="사각형 430" width="0.67" height="0.644" transform="translate(5.357 4.506)"/>
    <rect id="사각형_431" data-name="사각형 431" width="0.67" height="0.644" transform="translate(5.357 3.862)"/>
    <rect id="사각형_432" data-name="사각형 432" width="0.67" height="0.644" transform="translate(5.357 3.218)" fill="#686868"/>
    <rect id="사각형_433" data-name="사각형 433" width="0.67" height="0.644" transform="translate(5.357 2.575)" fill="#686868"/>
    <rect id="사각형_434" data-name="사각형 434" width="0.67" height="0.644" transform="translate(5.357 1.931)" fill="#686868"/>
    <rect id="사각형_435" data-name="사각형 435" width="0.67" height="0.644" transform="translate(5.357 1.287)" fill="#686868"/>
    <rect id="사각형_436" data-name="사각형 436" width="0.67" height="0.644" transform="translate(5.357 0.644)"/>
    <rect id="사각형_437" data-name="사각형 437" width="0.67" height="0.644" transform="translate(4.687 14.161)"/>
    <rect id="사각형_438" data-name="사각형 438" width="0.67" height="0.644" transform="translate(4.687 13.517)" fill="#424242"/>
    <rect id="사각형_439" data-name="사각형 439" width="0.67" height="0.644" transform="translate(4.687 12.874)" fill="#aaa"/>
    <rect id="사각형_440" data-name="사각형 440" width="0.67" height="0.644" transform="translate(4.687 12.23)" fill="#aaa"/>
    <rect id="사각형_441" data-name="사각형 441" width="0.67" height="0.644" transform="translate(4.687 11.586)" fill="#aaa"/>
    <rect id="사각형_442" data-name="사각형 442" width="0.67" height="0.644" transform="translate(4.687 10.943)" fill="#aaa"/>
    <rect id="사각형_443" data-name="사각형 443" width="0.67" height="0.644" transform="translate(4.687 10.299)" fill="#aaa"/>
    <rect id="사각형_444" data-name="사각형 444" width="0.67" height="0.644" transform="translate(4.687 9.655)" fill="#aaa"/>
    <rect id="사각형_445" data-name="사각형 445" width="0.67" height="0.644" transform="translate(4.687 9.012)" fill="#424242"/>
    <rect id="사각형_446" data-name="사각형 446" width="0.67" height="0.644" transform="translate(4.687 8.368)" fill="#aaa"/>
    <rect id="사각형_447" data-name="사각형 447" width="0.67" height="0.644" transform="translate(4.687 7.724)" fill="#aaa"/>
    <rect id="사각형_448" data-name="사각형 448" width="0.67" height="0.644" transform="translate(4.687 7.081)" fill="#aaa"/>
    <rect id="사각형_449" data-name="사각형 449" width="0.67" height="0.644" transform="translate(4.687 6.437)" fill="#aaa"/>
    <rect id="사각형_450" data-name="사각형 450" width="0.67" height="0.644" transform="translate(4.687 5.793)" fill="#aaa"/>
    <rect id="사각형_451" data-name="사각형 451" width="0.67" height="0.644" transform="translate(4.687 5.149)" fill="#aaa"/>
    <rect id="사각형_452" data-name="사각형 452" width="0.67" height="0.644" transform="translate(4.687 4.506)" fill="#686868"/>
    <rect id="사각형_453" data-name="사각형 453" width="0.67" height="0.644" transform="translate(4.687 3.862)" fill="#686868"/>
    <rect id="사각형_454" data-name="사각형 454" width="0.67" height="0.644" transform="translate(4.687 3.218)" fill="#aaa"/>
    <rect id="사각형_455" data-name="사각형 455" width="0.67" height="0.644" transform="translate(4.687 2.575)" fill="#aaa"/>
    <rect id="사각형_456" data-name="사각형 456" width="0.67" height="0.644" transform="translate(4.687 1.931)" fill="#aaa"/>
    <rect id="사각형_457" data-name="사각형 457" width="0.67" height="0.644" transform="translate(4.687 1.287)" fill="#aaa"/>
    <rect id="사각형_458" data-name="사각형 458" width="0.67" height="0.644" transform="translate(4.687 0.644)" fill="#686868"/>
    <rect id="사각형_459" data-name="사각형 459" width="0.67" height="0.644" transform="translate(4.687)"/>
    <rect id="사각형_460" data-name="사각형 460" width="0.67" height="0.644" transform="translate(4.018 14.161)"/>
    <rect id="사각형_461" data-name="사각형 461" width="0.67" height="0.644" transform="translate(4.018 13.517)" fill="#424242"/>
    <rect id="사각형_462" data-name="사각형 462" width="0.67" height="0.644" transform="translate(4.018 12.874)" fill="#aaa"/>
    <rect id="사각형_463" data-name="사각형 463" width="0.67" height="0.644" transform="translate(4.018 12.23)" fill="#aaa"/>
    <rect id="사각형_464" data-name="사각형 464" width="0.67" height="0.644" transform="translate(4.018 11.586)" fill="#aaa"/>
    <rect id="사각형_465" data-name="사각형 465" width="0.67" height="0.644" transform="translate(4.018 10.943)" fill="#aaa"/>
    <rect id="사각형_466" data-name="사각형 466" width="0.67" height="0.644" transform="translate(4.018 10.299)" fill="#aaa"/>
    <rect id="사각형_467" data-name="사각형 467" width="0.67" height="0.644" transform="translate(4.018 9.655)" fill="#686868"/>
    <rect id="사각형_468" data-name="사각형 468" width="0.67" height="0.644" transform="translate(4.018 9.012)" fill="#aaa"/>
    <rect id="사각형_469" data-name="사각형 469" width="0.67" height="0.644" transform="translate(4.018 8.368)" fill="#aaa"/>
    <rect id="사각형_470" data-name="사각형 470" width="0.67" height="0.644" transform="translate(4.018 7.724)" fill="#aaa"/>
    <rect id="사각형_471" data-name="사각형 471" width="0.67" height="0.644" transform="translate(4.018 7.081)" fill="#aaa"/>
    <rect id="사각형_472" data-name="사각형 472" width="0.67" height="0.644" transform="translate(4.018 6.437)" fill="#aaa"/>
    <rect id="사각형_473" data-name="사각형 473" width="0.67" height="0.644" transform="translate(4.018 5.793)" fill="#aaa"/>
    <rect id="사각형_474" data-name="사각형 474" width="0.67" height="0.644" transform="translate(4.018 5.149)" fill="#aaa"/>
    <rect id="사각형_475" data-name="사각형 475" width="0.67" height="0.644" transform="translate(4.018 4.506)" fill="#aaa"/>
    <rect id="사각형_476" data-name="사각형 476" width="0.67" height="0.644" transform="translate(4.018 3.862)" fill="#aaa"/>
    <rect id="사각형_477" data-name="사각형 477" width="0.67" height="0.644" transform="translate(4.018 3.218)" fill="#aaa"/>
    <rect id="사각형_478" data-name="사각형 478" width="0.67" height="0.644" transform="translate(4.018 2.575)" fill="#aaa"/>
    <rect id="사각형_479" data-name="사각형 479" width="0.67" height="0.644" transform="translate(4.018 1.931)" fill="#aaa"/>
    <rect id="사각형_480" data-name="사각형 480" width="0.67" height="0.644" transform="translate(4.018 1.287)" fill="#aaa"/>
    <rect id="사각형_481" data-name="사각형 481" width="0.67" height="0.644" transform="translate(4.018 0.644)" fill="#aaa"/>
    <rect id="사각형_482" data-name="사각형 482" width="0.67" height="0.644" transform="translate(4.018)"/>
    <rect id="사각형_483" data-name="사각형 483" width="0.67" height="0.644" transform="translate(3.348 14.161)"/>
    <rect id="사각형_484" data-name="사각형 484" width="0.67" height="0.644" transform="translate(3.348 13.517)" fill="#424242"/>
    <rect id="사각형_485" data-name="사각형 485" width="0.67" height="0.644" transform="translate(3.348 12.874)" fill="#aaa"/>
    <rect id="사각형_486" data-name="사각형 486" width="0.67" height="0.644" transform="translate(3.348 12.23)" fill="#aaa"/>
    <rect id="사각형_487" data-name="사각형 487" width="0.67" height="0.644" transform="translate(3.348 11.586)" fill="#aaa"/>
    <rect id="사각형_488" data-name="사각형 488" width="0.67" height="0.644" transform="translate(3.348 10.943)" fill="#aaa"/>
    <rect id="사각형_489" data-name="사각형 489" width="0.67" height="0.644" transform="translate(3.348 10.299)" fill="#686868"/>
    <rect id="사각형_490" data-name="사각형 490" width="0.67" height="0.644" transform="translate(3.348 9.655)" fill="#aaa"/>
    <rect id="사각형_491" data-name="사각형 491" width="0.67" height="0.644" transform="translate(3.348 9.012)" fill="#aaa"/>
    <rect id="사각형_492" data-name="사각형 492" width="0.67" height="0.644" transform="translate(3.348 8.368)" fill="#aaa"/>
    <rect id="사각형_493" data-name="사각형 493" width="0.67" height="0.644" transform="translate(3.348 7.724)" fill="#aaa"/>
    <rect id="사각형_494" data-name="사각형 494" width="0.67" height="0.644" transform="translate(3.348 7.081)" fill="#aaa"/>
    <rect id="사각형_495" data-name="사각형 495" width="0.67" height="0.644" transform="translate(3.348 6.437)" fill="#aaa"/>
    <rect id="사각형_496" data-name="사각형 496" width="0.67" height="0.644" transform="translate(3.348 5.793)" fill="#aaa"/>
    <rect id="사각형_497" data-name="사각형 497" width="0.67" height="0.644" transform="translate(3.348 5.149)" fill="#aaa"/>
    <rect id="사각형_498" data-name="사각형 498" width="0.669" height="0.644" transform="translate(3.348 4.506)" fill="#aaa"/>
    <rect id="사각형_499" data-name="사각형 499" width="0.67" height="0.644" transform="translate(3.348 3.862)" fill="#aaa"/>
    <rect id="사각형_500" data-name="사각형 500" width="0.67" height="0.644" transform="translate(3.348 3.218)" fill="#aaa"/>
    <rect id="사각형_501" data-name="사각형 501" width="0.67" height="0.644" transform="translate(3.348 2.575)" fill="#aaa"/>
    <rect id="사각형_502" data-name="사각형 502" width="0.67" height="0.644" transform="translate(3.348 1.931)" fill="#aaa"/>
    <rect id="사각형_503" data-name="사각형 503" width="0.67" height="0.644" transform="translate(3.348 1.287)" fill="#fff"/>
    <rect id="사각형_504" data-name="사각형 504" width="0.67" height="0.644" transform="translate(3.348 0.644)" fill="#fff"/>
    <rect id="사각형_505" data-name="사각형 505" width="0.67" height="0.644" transform="translate(3.348)"/>
    <rect id="사각형_506" data-name="사각형 506" width="0.67" height="0.644" transform="translate(2.679 14.161)"/>
    <rect id="사각형_507" data-name="사각형 507" width="0.67" height="0.644" transform="translate(2.679 13.517)" fill="#424242"/>
    <rect id="사각형_508" data-name="사각형 508" width="0.67" height="0.644" transform="translate(2.679 12.874)" fill="#aaa"/>
    <rect id="사각형_509" data-name="사각형 509" width="0.67" height="0.644" transform="translate(2.679 12.23)" fill="#aaa"/>
    <rect id="사각형_510" data-name="사각형 510" width="0.67" height="0.644" transform="translate(2.679 11.586)" fill="#aaa"/>
    <rect id="사각형_511" data-name="사각형 511" width="0.67" height="0.644" transform="translate(2.679 10.943)" fill="#aaa"/>
    <rect id="사각형_512" data-name="사각형 512" width="0.67" height="0.644" transform="translate(2.679 10.299)" fill="#686868"/>
    <rect id="사각형_513" data-name="사각형 513" width="0.67" height="0.644" transform="translate(2.679 9.655)" fill="#aaa"/>
    <rect id="사각형_514" data-name="사각형 514" width="0.67" height="0.644" transform="translate(2.679 9.012)" fill="#aaa"/>
    <rect id="사각형_515" data-name="사각형 515" width="0.67" height="0.644" transform="translate(2.679 8.368)" fill="#aaa"/>
    <rect id="사각형_516" data-name="사각형 516" width="0.67" height="0.644" transform="translate(2.679 7.724)" fill="#aaa"/>
    <rect id="사각형_517" data-name="사각형 517" width="0.67" height="0.644" transform="translate(2.679 7.081)" fill="#aaa"/>
    <rect id="사각형_518" data-name="사각형 518" width="0.67" height="0.644" transform="translate(2.679 6.437)" fill="#aaa"/>
    <rect id="사각형_519" data-name="사각형 519" width="0.67" height="0.644" transform="translate(2.679 5.793)" fill="#aaa"/>
    <rect id="사각형_520" data-name="사각형 520" width="0.67" height="0.644" transform="translate(2.679 5.149)" fill="#aaa"/>
    <rect id="사각형_521" data-name="사각형 521" width="0.67" height="0.644" transform="translate(2.679 4.506)" fill="#aaa"/>
    <rect id="사각형_522" data-name="사각형 522" width="0.67" height="0.644" transform="translate(2.679 3.862)" fill="#aaa"/>
    <rect id="사각형_523" data-name="사각형 523" width="0.67" height="0.644" transform="translate(2.679 3.218)"/>
    <rect id="사각형_524" data-name="사각형 524" width="0.67" height="0.644" transform="translate(2.679 2.575)"/>
    <rect id="사각형_525" data-name="사각형 525" width="0.67" height="0.644" transform="translate(2.679 1.931)"/>
    <rect id="사각형_526" data-name="사각형 526" width="0.67" height="0.644" transform="translate(2.679 1.287)"/>
    <rect id="사각형_527" data-name="사각형 527" width="0.67" height="0.644" transform="translate(2.679 0.644)"/>
    <rect id="사각형_528" data-name="사각형 528" width="0.67" height="0.644" transform="translate(2.009 14.161)"/>
    <rect id="사각형_529" data-name="사각형 529" width="0.67" height="0.644" transform="translate(2.009 13.517)" fill="#424242"/>
    <rect id="사각형_530" data-name="사각형 530" width="0.67" height="0.644" transform="translate(2.009 12.874)" fill="#aaa"/>
    <rect id="사각형_531" data-name="사각형 531" width="0.67" height="0.644" transform="translate(2.009 12.23)" fill="#aaa"/>
    <rect id="사각형_532" data-name="사각형 532" width="0.67" height="0.644" transform="translate(2.009 11.586)" fill="#aaa"/>
    <rect id="사각형_533" data-name="사각형 533" width="0.67" height="0.644" transform="translate(2.009 10.943)" fill="#aaa"/>
    <rect id="사각형_534" data-name="사각형 534" width="0.67" height="0.644" transform="translate(2.009 10.299)" fill="#aaa"/>
    <rect id="사각형_535" data-name="사각형 535" width="0.67" height="0.644" transform="translate(2.009 9.655)" fill="#aaa"/>
    <rect id="사각형_536" data-name="사각형 536" width="0.67" height="0.644" transform="translate(2.009 9.012)" fill="#aaa"/>
    <rect id="사각형_537" data-name="사각형 537" width="0.67" height="0.644" transform="translate(2.009 8.368)" fill="#aaa"/>
    <rect id="사각형_538" data-name="사각형 538" width="0.67" height="0.644" transform="translate(2.009 7.724)" fill="#aaa"/>
    <rect id="사각형_539" data-name="사각형 539" width="0.67" height="0.644" transform="translate(2.009 7.081)" fill="#aaa"/>
    <rect id="사각형_540" data-name="사각형 540" width="0.67" height="0.644" transform="translate(2.009 6.437)" fill="#aaa"/>
    <rect id="사각형_541" data-name="사각형 541" width="0.67" height="0.644" transform="translate(2.009 5.793)" fill="#aaa"/>
    <rect id="사각형_542" data-name="사각형 542" width="0.67" height="0.644" transform="translate(2.009 5.149)"/>
    <rect id="사각형_543" data-name="사각형 543" width="0.67" height="0.644" transform="translate(2.009 4.506)"/>
    <rect id="사각형_544" data-name="사각형 544" width="0.67" height="0.644" transform="translate(2.009 3.862)"/>
    <rect id="사각형_545" data-name="사각형 545" width="0.67" height="0.644" transform="translate(1.34 14.161)"/>
    <rect id="사각형_546" data-name="사각형 546" width="0.67" height="0.644" transform="translate(1.34 13.517)" fill="#686868"/>
    <rect id="사각형_547" data-name="사각형 547" width="0.67" height="0.644" transform="translate(1.34 12.874)" fill="#aaa"/>
    <rect id="사각형_548" data-name="사각형 548" width="0.67" height="0.644" transform="translate(1.34 12.23)" fill="#aaa"/>
    <rect id="사각형_549" data-name="사각형 549" width="0.67" height="0.644" transform="translate(1.34 11.586)" fill="#aaa"/>
    <rect id="사각형_550" data-name="사각형 550" width="0.67" height="0.644" transform="translate(1.34 10.943)" fill="#aaa"/>
    <rect id="사각형_551" data-name="사각형 551" width="0.67" height="0.644" transform="translate(1.34 10.299)" fill="#aaa"/>
    <rect id="사각형_552" data-name="사각형 552" width="0.67" height="0.644" transform="translate(1.34 9.655)" fill="#aaa"/>
    <rect id="사각형_553" data-name="사각형 553" width="0.67" height="0.644" transform="translate(1.34 9.012)" fill="#aaa"/>
    <rect id="사각형_554" data-name="사각형 554" width="0.67" height="0.644" transform="translate(1.34 8.368)" fill="#aaa"/>
    <rect id="사각형_555" data-name="사각형 555" width="0.67" height="0.644" transform="translate(1.34 7.724)" fill="#aaa"/>
    <rect id="사각형_556" data-name="사각형 556" width="0.669" height="0.644" transform="translate(1.34 7.081)" fill="#aaa"/>
    <rect id="사각형_557" data-name="사각형 557" width="0.67" height="0.644" transform="translate(1.34 6.437)" fill="#aaa"/>
    <rect id="사각형_558" data-name="사각형 558" width="0.67" height="0.644" transform="translate(1.34 5.793)"/>
    <rect id="사각형_559" data-name="사각형 559" width="0.67" height="0.644" transform="translate(0.67 13.517)"/>
    <rect id="사각형_560" data-name="사각형 560" width="0.67" height="0.644" transform="translate(0.67 12.874)" fill="#686868"/>
    <rect id="사각형_561" data-name="사각형 561" width="0.67" height="0.644" transform="translate(0.67 12.23)" fill="#686868"/>
    <rect id="사각형_562" data-name="사각형 562" width="0.67" height="0.644" transform="translate(0.67 11.586)" fill="#686868"/>
    <rect id="사각형_563" data-name="사각형 563" width="0.67" height="0.644" transform="translate(0.67 10.943)" fill="#686868"/>
    <rect id="사각형_564" data-name="사각형 564" width="0.67" height="0.644" transform="translate(0.67 10.299)" fill="#686868"/>
    <rect id="사각형_565" data-name="사각형 565" width="0.67" height="0.644" transform="translate(0.67 9.655)" fill="#686868"/>
    <rect id="사각형_566" data-name="사각형 566" width="0.67" height="0.644" transform="translate(0.67 9.012)" fill="#686868"/>
    <rect id="사각형_567" data-name="사각형 567" width="0.67" height="0.644" transform="translate(0.67 8.368)" fill="#686868"/>
    <rect id="사각형_568" data-name="사각형 568" width="0.67" height="0.644" transform="translate(0.67 7.724)" fill="#686868"/>
    <rect id="사각형_569" data-name="사각형 569" width="0.67" height="0.644" transform="translate(0.67 7.081)" fill="#686868"/>
    <rect id="사각형_570" data-name="사각형 570" width="0.67" height="0.644" transform="translate(0.67 6.437)"/>
    <rect id="사각형_571" data-name="사각형 571" width="0.67" height="0.644" transform="translate(0 12.874)"/>
    <rect id="사각형_572" data-name="사각형 572" width="0.67" height="0.644" transform="translate(0 12.23)"/>
    <rect id="사각형_573" data-name="사각형 573" width="0.67" height="0.644" transform="translate(0 11.586)"/>
    <rect id="사각형_574" data-name="사각형 574" width="0.67" height="0.644" transform="translate(0 10.943)"/>
    <rect id="사각형_575" data-name="사각형 575" width="0.67" height="0.644" transform="translate(0 10.299)"/>
    <rect id="사각형_576" data-name="사각형 576" width="0.67" height="0.644" transform="translate(0 9.655)"/>
    <rect id="사각형_577" data-name="사각형 577" width="0.67" height="0.644" transform="translate(0 9.012)"/>
    <rect id="사각형_578" data-name="사각형 578" width="0.67" height="0.644" transform="translate(0 8.368)"/>
    <rect id="사각형_579" data-name="사각형 579" width="0.67" height="0.644" transform="translate(0 7.724)"/>
    <rect id="사각형_580" data-name="사각형 580" width="0.67" height="0.644" transform="translate(0 7.081)"/>
</svg>
