<svg xmlns="http://www.w3.org/2000/svg" width="294.2" height="300" viewBox="0 0 294.2 300">
    <path id="패스_1123" data-name="패스 1123" d="M4164.646,133.979h-25.124A22.42,22.42,0,0,0,4117.1,156.4V286.172a22.42,22.42,0,0,0,22.419,22.42h25.124a22.42,22.42,0,0,0,22.419-22.42V156.4a22.419,22.419,0,0,0-22.419-22.42" transform="translate(-4117.103 -8.592)" fill="#919191"/>
    <path id="패스_1124" data-name="패스 1124" d="M4411.063,180.233c-6.351-3.476-7.561-7.569-4.124-13.946a21.83,21.83,0,0,0-19.148-32.307h-74.943A17.863,17.863,0,0,1,4296.01,110.2c6.156-17.632,10.218-36.245,8.655-51.549-1.587-20.672-14.763-45.556-37.609-49.934-5.639-.909-10.077,3.138-10.044,8.787-.768,38.235-12.069,75.442-31.917,108.229-9.4,15.533-10.782,37.451-10.782,51.7v87.694a43.459,43.459,0,0,0,43.458,43.459h118.261a21.822,21.822,0,0,0,18.913-32.716h0c-3.577-6.215-2.485-10.271,3.73-13.848h0a21.828,21.828,0,0,0,8.264-29.4c-3.438-6.377-2.228-10.471,4.124-13.947a21.833,21.833,0,0,0,0-38.453" transform="translate(-4128.351 -8.593)" fill="#919191"/>
</svg>
