<svg id="View-Gallary" xmlns="http://www.w3.org/2000/svg" width="36.45" height="34.793" viewBox="0 0 36.45 34.793">
    <path id="background" d="M332.674,361.994H302.854a3.314,3.314,0,0,0-3.315,3.313v28.167a3.314,3.314,0,0,0,3.315,3.313h29.821a3.314,3.314,0,0,0,3.315-3.313V365.307A3.314,3.314,0,0,0,332.674,361.994Zm-1.719,26.786a3.2,3.2,0,0,1-3.2,3.2H307.775a3.2,3.2,0,0,1-3.2-3.2V370a3.2,3.2,0,0,1,3.2-3.2h19.978a3.2,3.2,0,0,1,3.2,3.2Z" transform="translate(-299.539 -361.994)" fill="#fbfbfb"/>
    <g id="sun" transform="translate(7.467 10.075)">
        <path id="패스_967" data-name="패스 967" d="M309.843,371.271a2.723,2.723,0,1,1-2.724-2.724A2.724,2.724,0,0,1,309.843,371.271Z" transform="translate(-304.396 -368.547)" fill="#fbfbfb"/>
    </g>
    <g id="mountains" transform="translate(7.021 15.528)">
        <path id="패스_968" data-name="패스 968" d="M319.019,376.689l-4.671-4.6-4.672,4.6-.318.312.741.718,2.6,2.529,1.065,1.036h9.924Zm-4.129-2.48-2.807,2.761a.49.49,0,0,1-.346.141.485.485,0,0,1-.351-.146.493.493,0,0,1,0-.7l2.809-2.763a.492.492,0,1,1,.69.7Z" transform="translate(-301.284 -372.094)" fill="#fbfbfb"/>
        <path id="패스_969" data-name="패스 969" d="M311.916,377.31l-2.6-2.527-2.6,2.527-2.6,2.529h10.413Zm-2.3-.194-1.988,1.929a.485.485,0,0,1-.343.14.493.493,0,0,1-.343-.847l1.988-1.929a.492.492,0,1,1,.686.707Z" transform="translate(-304.106 -370.649)" fill="#fbfbfb"/>
    </g>
</svg>
