<svg id="Twitter" xmlns="http://www.w3.org/2000/svg" width="37" height="37" viewBox="0 0 37 37">
  <path id="패스_1027" data-name="패스 1027" d="M112.253,393.608a18.459,18.459,0,1,1,18.46-18.46A18.481,18.481,0,0,1,112.253,393.608Zm0-36.04a17.581,17.581,0,1,0,17.58,17.58A17.6,17.6,0,0,0,112.253,357.568Z" transform="translate(-93.793 -356.69)" fill="#fff"/>
  <path id="패스_1028" data-name="패스 1028" d="M118.027,363.617c0-.148-1.69.667-2.474.665-.09-.228-.123-.3-.031-.109-.107-.24-.215-.474-.324-.691-1.663-3.335-6.459-1.949-7.238,1.29a8.491,8.491,0,0,0-.17,2.615c-2.148.786-8.114-3.009-8.129-3-.418,1.118.822,3.3.913,3.5a9.875,9.875,0,0,0,4.982,4.8,6.5,6.5,0,0,1-2.193,1.715c-1.653.777-5.745.984-5.47,1.052,0,0,2.31,1.1,2.383,1.126a12.315,12.315,0,0,0,12.961-2.092,11.577,11.577,0,0,0,3.1-5.452,5.55,5.55,0,0,0,.037-2.045,1.8,1.8,0,0,0-.066-.5c.2-.164,1.183-1.858,1.688-2.669A.3.3,0,0,0,118.027,363.617Z" transform="translate(-89.497 -351.569)" fill="#fff"/>
</svg>
