<svg id="레이어_1" data-name="레이어 1" xmlns="http://www.w3.org/2000/svg" viewBox="0 0 86.41 86.41"><defs><style>.cls-1{fill:#fff;}</style></defs><path id="패스_1027" data-name="패스 1027" class="cls-1" d="M-465.52,535.07a43.21,43.21,0,0,1-43.2-43.21,43.2,43.2,0,0,1,43.2-43.2,43.22,43.22,0,0,1,43.21,43.2A43.27,43.27,0,0,1-465.52,535.07Zm0-84.35a41.14,41.14,0,0,0-41.15,41.14A41.16,41.16,0,0,0-465.53,533a41.17,41.17,0,0,0,41.16-41.15h0A41.19,41.19,0,0,0-465.52,450.72Z" transform="translate(508.72 -448.66)"/><path class="cls-1" d="M-462.56,495.45v18.44H-471V495.45h-7V488h7v-2.73c0-10.1,4.21-15.41,13.14-15.41a14.64,14.64,0,0,1,4.92.8V478a16.84,16.84,0,0,0-3.9-.45,4.84,4.84,0,0,0-4.17,1.74c-1,1.16-1.51,3.16-1.51,6V488H-453l-2.58,7.47Z" transform="translate(508.72 -448.66)"/></svg>