<svg id="Discord" xmlns="http://www.w3.org/2000/svg" width="37" height="37" viewBox="0 0 37 37">
    <g id="그룹_127" data-name="그룹 127">
        <path id="패스_1027" data-name="패스 1027" d="M112.253,393.608a18.459,18.459,0,1,1,18.46-18.46A18.481,18.481,0,0,1,112.253,393.608Zm0-36.04a17.581,17.581,0,1,0,17.58,17.58A17.6,17.6,0,0,0,112.253,357.568Z" transform="translate(-93.793 -356.69)" fill="#fff"/>
    </g>
    <path id="패스_1029" data-name="패스 1029" d="M-968.894,106.726a11.232,11.232,0,0,0-5.52-2.165c-.5-.042-.641.7-.641.7a13.16,13.16,0,0,1,4.446,1.674c.458.291.558,1.407-.849.641a12.932,12.932,0,0,0-6.095-1.449,12.933,12.933,0,0,0-6.095,1.449c-1.407.766-1.307-.35-.849-.641a13.158,13.158,0,0,1,4.446-1.674s-.141-.741-.641-.7a11.232,11.232,0,0,0-5.52,2.165c-1.366,1.415-3.355,9.067-2.956,11.64,0,0,.924,2.531,5.67,3.347,1.116.2,1.166-.183,1.166-.183l.882-1.216a10.89,10.89,0,0,1-3.663-1.665c-.75-.5-.083-1.316.533-.916a11.993,11.993,0,0,0,7.027,2.032,11.993,11.993,0,0,0,7.027-2.032c.616-.4,1.282.416.533.916a10.891,10.891,0,0,1-3.664,1.665l.883,1.216s.05.383,1.166.183c4.746-.816,5.67-3.347,5.67-3.347C-965.538,115.793-967.528,108.141-968.894,106.726Zm-12.031,9.442a2.023,2.023,0,0,1-2.023-2.023,2.023,2.023,0,0,1,2.023-2.023,2.023,2.023,0,0,1,2.023,2.023A2.023,2.023,0,0,1-980.925,116.168Zm6.744,0a2.023,2.023,0,0,1-2.023-2.023,2.023,2.023,0,0,1,2.023-2.023,2.023,2.023,0,0,1,2.023,2.023A2.023,2.023,0,0,1-974.181,116.168Z" transform="translate(996.013 -94.706)" fill="#fff"/>
</svg>
