<svg id="Instagram" xmlns="http://www.w3.org/2000/svg" width="37" height="37" viewBox="0 0 37 37">
    <path id="패스_1024" data-name="패스 1024" d="M91.166,393.608a18.459,18.459,0,1,1,18.46-18.46A18.48,18.48,0,0,1,91.166,393.608Zm0-36.04a17.581,17.581,0,1,0,17.58,17.58A17.6,17.6,0,0,0,91.166,357.568Z" transform="translate(-72.706 -356.69)" fill="#fff"/>
    <g id="그룹_124" data-name="그룹 124" transform="translate(8.204 8.202)">
        <path id="패스_1025" data-name="패스 1025" d="M92.307,381.2H81.614a4.9,4.9,0,0,1-4.908-4.908V365.6a4.908,4.908,0,0,1,4.908-4.91H92.307a4.911,4.911,0,0,1,4.91,4.91v10.692a4.905,4.905,0,0,1-4.91,4.908ZM81.614,361.756a3.849,3.849,0,0,0-3.844,3.844v10.692a3.849,3.849,0,0,0,3.844,3.844H92.307a3.848,3.848,0,0,0,3.844-3.844V365.6a3.848,3.848,0,0,0-3.844-3.844Z" transform="translate(-76.706 -360.689)" fill="#fff"/>
        <path id="패스_1026" data-name="패스 1026" d="M84.318,373.4A5.084,5.084,0,1,1,86.3,373,5.057,5.057,0,0,1,84.318,373.4Zm0-9.128a4.031,4.031,0,1,0,4.03,4.03A4.037,4.037,0,0,0,84.318,364.271Z" transform="translate(-74.062 -358.045)" fill="#fff"/>
        <circle id="타원_16" data-name="타원 16" cx="1.188" cy="1.188" r="1.188" transform="translate(14.846 3.196)" fill="#fff"/>
    </g>
</svg>
