<svg id="Link_share" data-name="Link share" xmlns="http://www.w3.org/2000/svg" width="36.92" height="36.918" viewBox="0 0 36.92 36.918">
    <g id="그룹_122" data-name="그룹 122" transform="translate(6.67 6.151)">
        <path id="패스_1022" data-name="패스 1022" d="M72.031,378.873a3.709,3.709,0,0,0-2.521.995l-6.961-5.212a3.6,3.6,0,0,0,0-3.269l6.964-5.21a3.729,3.729,0,1,0-1.22-2.746,3.669,3.669,0,0,0,.394,1.637l-6.966,5.208a3.74,3.74,0,1,0,0,5.493l6.961,5.21a3.689,3.689,0,0,0-.392,1.637,3.74,3.74,0,1,0,3.741-3.741Zm0-17.8a2.355,2.355,0,1,1-2.357,2.355A2.357,2.357,0,0,1,72.031,361.076ZM59.2,375.378a2.356,2.356,0,1,1,2.355-2.357A2.358,2.358,0,0,1,59.2,375.378Zm12.832,9.591a2.356,2.356,0,1,1,2.355-2.355A2.358,2.358,0,0,1,72.031,384.969Z" transform="translate(-55.458 -359.689)" fill="#fff"/>
    </g>
    <path id="패스_1023" data-name="패스 1023" d="M70.666,393.608a18.459,18.459,0,1,1,18.46-18.46A18.48,18.48,0,0,1,70.666,393.608Zm0-36.04a17.581,17.581,0,1,0,17.58,17.58A17.6,17.6,0,0,0,70.666,357.568Z" transform="translate(-52.206 -356.69)" fill="#fff"/>
</svg>
