<svg xmlns="http://www.w3.org/2000/svg" width="450.256" height="450.256" viewBox="0 0 450.256 450.256">
    <path id="패스_1131" data-name="패스 1131" d="M1735.379,225.128c0,124.335-100.793,225.128-225.128,225.128s-225.128-100.793-225.128-225.128S1385.916,0,1510.251,0s225.128,100.793,225.128,225.128" transform="translate(-1285.123)" fill="#1a73e8"/>
    <path id="패스_1132" data-name="패스 1132" d="M1482.17,132.8a85.3,85.3,0,0,0-52.594,53.39c-12.04,35.864-2.161,70.232,19.654,93.124a18.19,18.19,0,0,1-2.317,5.954,23.126,23.126,0,0,1-13.731,9.815,35.57,35.57,0,0,1-17.115-.027c10.3,12.859,23.525,22.535,39.87,24.625,14.1,1.8,29.48-3.68,37.945-14.79a93.951,93.951,0,0,0,52.523-3.178,85.171,85.171,0,0,0,52.455-52.34c25.844-74.217-42.469-142.49-116.69-116.573" transform="translate(-1285.122 1.522)" fill="#fff"/>
</svg>
