<svg xmlns="http://www.w3.org/2000/svg" width="450.256" height="450.256" viewBox="0 0 450.256 450.256">
    <path id="패스_1129" data-name="패스 1129" d="M1076.48,228.173c0,124.335-100.793,225.128-225.128,225.128S626.224,352.508,626.224,228.173,727.017,3.045,851.352,3.045,1076.48,103.838,1076.48,228.173" transform="translate(-626.224 -3.045)" fill="#895ac8"/>
    <path id="패스_1130" data-name="패스 1130" d="M937.292,285.6l-41.48-41.48A72.673,72.673,0,1,0,867.3,272.632l41.48,41.481A20.159,20.159,0,0,0,937.292,285.6m-105.109-34.53A42.07,42.07,0,1,1,874.253,209a42.07,42.07,0,0,1-42.07,42.07" transform="translate(-626.224 -3.045)" fill="#fff"/>
</svg>
