<svg xmlns="http://www.w3.org/2000/svg" width="450.256" height="450.256" viewBox="0 0 450.256 450.256">
    <path id="패스_1133" data-name="패스 1133" d="M2337.607,225.128c0,124.335-100.793,225.128-225.128,225.128s-225.128-100.793-225.128-225.128S1988.144,0,2112.479,0s225.128,100.793,225.128,225.128" transform="translate(-1887.351)" fill="#fd3232"/>
    <path id="패스_1134" data-name="패스 1134" d="M2054.791,193.419h-15.909a14.2,14.2,0,0,0-14.195,14.2v82.172a14.2,14.2,0,0,0,14.195,14.2h15.909a14.2,14.2,0,0,0,14.2-14.2V207.615a14.2,14.2,0,0,0-14.2-14.2" transform="translate(-1887.351)" fill="#fff"/>
    <path id="패스_1135" data-name="패스 1135" d="M2210.821,222.706c-4.022-2.2-4.788-4.793-2.612-8.831a13.821,13.821,0,0,0-12.124-20.456h-47.454a11.312,11.312,0,0,1-10.662-15.055c3.9-11.164,6.471-22.95,5.48-32.641-1-13.089-9.346-28.845-23.813-31.618a5.365,5.365,0,0,0-6.36,5.564,137.76,137.76,0,0,1-20.21,68.53c-5.951,9.836-6.826,23.714-6.826,32.738v55.527a27.518,27.518,0,0,0,27.517,27.519h74.882a13.818,13.818,0,0,0,11.976-20.716h0c-2.264-3.935-1.573-6.5,2.362-8.769h0a13.819,13.819,0,0,0,5.231-18.613c-2.177-4.038-1.41-6.631,2.612-8.832a13.824,13.824,0,0,0,0-24.348" transform="translate(-1887.351)" fill="#fff"/>
</svg>
