<svg xmlns="http://www.w3.org/2000/svg" width="450.256" height="450.256" viewBox="0 0 450.256 450.256">
    <path id="패스_1136" data-name="패스 1136" d="M2999.058,225.128c0,124.335-100.794,225.128-225.129,225.128S2548.8,349.463,2548.8,225.128,2649.594,0,2773.929,0s225.129,100.793,225.129,225.128" transform="translate(-2548.802)" fill="#4cf8db"/>
    <path id="패스_1137" data-name="패스 1137" d="M2862.534,210.857l-77.9-77.921v37.482a140.8,140.8,0,0,0-42.58,18.913,130.815,130.815,0,0,0-37.367,37.6,120.22,120.22,0,0,0-17.845,45.556,109.032,109.032,0,0,0,1.783,44.838,98.1,98.1,0,0,1,17.967-36.647,87.579,87.579,0,0,1,28.332-23.51,76.278,76.278,0,0,1,31.7-8.582,67.1,67.1,0,0,1,18.011,1.67v38.541Z" transform="translate(-2548.802)" fill="#fff"/>
</svg>
